<svg viewBox="0 0 571 182" fill="none" xmlns="http://www.w3.org/2000/svg">
<ellipse cx="112.503" cy="24.4149" rx="22.179" ry="22.1951" stroke="#1364FE" stroke-width="2"/>
<ellipse cx="112.503" cy="157.585" rx="22.179" ry="22.1951" stroke="#1364FE" stroke-width="2"/>
<ellipse cx="23.7884" cy="113.195" rx="22.179" ry="22.1951" stroke="#1364FE" stroke-width="2"/>
<ellipse cx="156.863" cy="113.195" rx="22.179" ry="22.1951" stroke="#1364FE" stroke-width="2"/>
<ellipse cx="214.527" cy="90.9998" rx="22.179" ry="22.1951" stroke="#1364FE" stroke-width="2"/>
<ellipse cx="347.601" cy="90.9998" rx="22.179" ry="22.1951" stroke="#1364FE" stroke-width="2"/>
<ellipse cx="281.064" cy="24.4149" rx="22.179" ry="22.1951" stroke="#1364FE" stroke-width="2"/>
<ellipse cx="281.064" cy="157.586" rx="22.179" ry="22.1951" stroke="#1364FE" stroke-width="2"/>
<path d="M1.60938 113.195C1.60938 100.937 11.5392 91 23.7884 91H156.862C169.111 91 179.041 100.937 179.041 113.195C179.041 125.453 169.111 135.39 156.862 135.39H23.7884C11.5392 135.39 1.60938 125.453 1.60938 113.195Z" stroke="#1364FE" stroke-width="2"/>
<path d="M112.503 179.781C100.254 179.781 90.3242 169.844 90.3242 157.586L90.3242 24.4149C90.3242 12.1569 100.254 2.21977 112.503 2.21976C124.752 2.21976 134.682 12.1569 134.682 24.4149L134.682 157.586C134.682 169.844 124.752 179.781 112.503 179.781Z" stroke="#1364FE" stroke-width="2"/>
<path d="M8.42119 128.726C-0.240241 120.058 -0.24024 106.005 8.42119 97.3374L96.6587 9.03574C105.32 0.367996 119.363 0.367993 128.025 9.03573C136.686 17.7035 136.686 31.7566 128.025 40.4244L39.787 128.726C31.1256 137.394 17.0826 137.394 8.42119 128.726Z" stroke="#1364FE" stroke-width="2"/>
<ellipse cx="502.855" cy="24.4149" rx="22.179" ry="22.1951" stroke="#1364FE" stroke-width="2"/>
<ellipse cx="502.855" cy="157.585" rx="22.179" ry="22.1951" stroke="#1364FE" stroke-width="2"/>
<ellipse cx="414.138" cy="113.195" rx="22.179" ry="22.1951" stroke="#1364FE" stroke-width="2"/>
<ellipse cx="547.212" cy="113.195" rx="22.179" ry="22.1951" stroke="#1364FE" stroke-width="2"/>
<path d="M391.959 113.195C391.959 100.937 401.889 91 414.138 91H547.212C559.461 91 569.391 100.937 569.391 113.195C569.391 125.453 559.461 135.39 547.212 135.39H414.138C401.889 135.39 391.959 125.453 391.959 113.195Z" stroke="#1364FE" stroke-width="2"/>
<path d="M502.855 179.781C490.606 179.781 480.676 169.844 480.676 157.586L480.676 24.4149C480.676 12.1569 490.606 2.21977 502.855 2.21976C515.104 2.21976 525.034 12.1569 525.034 24.4149L525.034 157.586C525.034 169.844 515.104 179.781 502.855 179.781Z" stroke="#1364FE" stroke-width="2"/>
<path d="M398.771 128.726C390.109 120.058 390.109 106.005 398.771 97.3374L487.008 9.03574C495.67 0.367996 509.713 0.367993 518.374 9.03573C527.036 17.7035 527.036 31.7566 518.374 40.4244L430.137 128.726C421.475 137.394 407.432 137.394 398.771 128.726Z" stroke="#1364FE" stroke-width="2"/>
<ellipse cx="281.064" cy="91.0002" rx="88.716" ry="88.7805" stroke="#1364FE" stroke-width="2"/>
<ellipse cx="281.065" cy="91.0001" rx="44.358" ry="44.3902" stroke="#1364FE" stroke-width="2"/>
<line x1="0.5" y1="1.21973" x2="569.391" y2="1.21977" stroke="#1364FE" stroke-width="2"/>
<line x1="0.5" y1="181" x2="569.391" y2="181" stroke="#1364FE" stroke-width="2"/>
</svg>
