<svg version="1.1" xmlns="http://www.w3.org/2000/svg" viewBox="0 0 1054 450" enable-background="new 0 0 1054 450" xml:space="preserve">
  <path fill="#1364FE" stroke="none" d="M173.000000,1.000001 C315.023315,1.000000 457.046631,1.000000 599.161865,1.162626 C599.159851,2.258312 599.299438,3.295153 598.937622,4.109090 C591.999023,19.719280 584.998596,35.301987 578.016846,50.893024 C568.109619,73.017357 558.210571,95.145355 548.301758,117.268990 C536.929932,142.658920 525.552307,168.046249 514.175171,193.433823 C501.133423,222.535873 488.077301,251.631516 475.050293,280.740173 C465.147430,302.867859 455.295105,325.018188 445.393921,347.146637 C431.306641,378.630707 417.118622,410.070190 403.190186,441.624268 C401.434875,445.600800 399.540344,447.129272 394.972809,447.123932 C263.648682,446.970398 132.324326,447.000000 1.000000,447.000000 C1.000000,445.611115 1.000000,444.222198 1.248957,442.756653 C2.364664,441.334076 3.411048,440.070557 4.071544,438.630066 C16.421806,411.695618 28.787420,384.767761 40.967804,357.756439 C42.607056,354.121216 44.602074,352.889496 48.666344,352.895233 C144.495834,353.030579 240.325607,352.971069 336.155090,353.103485 C340.143341,353.109009 342.361359,352.028198 343.976257,348.405701 C353.452606,327.147888 363.109375,305.970642 372.641022,284.737335 C374.466980,280.669800 376.006165,276.473541 377.817902,271.989502 C278.024475,271.989502 178.869415,271.989502 79.056343,271.989502 C81.700424,266.341125 84.253044,261.100067 86.627457,255.779510 C97.566330,231.267685 108.540108,206.770615 119.279800,182.171524 C121.081978,178.043655 123.437561,176.883636 127.871140,176.890381 C223.867279,177.036377 319.863708,176.979172 415.859924,177.083908 C419.660278,177.088058 421.699402,176.153748 423.313660,172.480133 C431.170319,154.600494 439.386230,136.878983 447.434875,119.083328 C450.844543,111.544510 454.155884,103.961182 457.703125,95.967171 C348.758026,95.967171 240.209167,95.967171 131.096603,95.967171 C135.404404,86.274979 139.442200,77.052399 143.592804,67.880875 C151.914612,49.492287 160.344177,31.152315 168.618240,12.742381 C170.327209,8.939889 171.552032,4.919800 173.000000,1.000001 z"/>
  <path fill="none" stroke="none" d="M1.000000,447.500000 C132.324326,447.000000 263.648682,446.970398 394.972809,447.123932 C399.540344,447.129272 401.434875,445.600800 403.190186,441.624268 C417.118622,410.070190 431.306641,378.630707 445.393921,347.146637 C455.295105,325.018188 465.147430,302.867859 475.050293,280.740173 C488.077301,251.631516 501.133423,222.535873 514.175171,193.433823 C525.552307,168.046249 536.929932,142.658920 548.301758,117.268990 C558.210571,95.145355 568.109619,73.017357 578.016846,50.893024 C584.998596,35.301987 591.999023,19.719280 598.937622,4.109090 C599.299438,3.295153 599.159851,2.258312 599.626831,1.162626 C609.020874,1.000000 618.041809,1.000000 627.892578,1.235688 C621.229431,18.096384 613.726257,34.716866 606.245667,51.347481 C595.899292,74.349037 585.560242,97.353920 575.235840,120.365334 C563.846619,145.749802 552.480469,171.144638 541.098755,196.532486 C529.450195,222.515503 517.794678,248.495407 506.142792,274.476929 C494.490692,300.458740 482.849976,326.445709 471.184509,352.421509 C460.116028,377.067993 449.012299,401.698669 437.945160,426.345734 C434.925995,433.069580 431.982574,439.827454 428.814758,446.998962 C462.014221,446.998962 494.506256,447.024597 526.997742,446.901337 C528.242493,446.896576 530.105652,445.749084 530.625732,444.639618 C535.113281,435.065613 539.372375,425.384155 543.673157,415.722992 C554.590088,391.199310 565.440796,366.645935 576.419739,342.150055 C584.407959,324.326965 592.608215,306.599060 600.624451,288.788422 C612.043823,263.416809 623.412842,238.022385 634.738770,212.608887 C639.636292,201.619690 644.302368,190.527267 649.211304,179.543320 C651.685120,174.008133 654.466675,168.610489 657.125854,163.115936 C669.221680,180.523605 681.098999,197.473267 692.826050,214.526306 C711.935059,242.313736 730.919922,270.186432 750.006287,297.989441 C765.225647,320.159454 780.555359,342.253693 795.768860,364.427704 C813.742188,390.624298 831.720764,416.818237 849.465393,443.169403 C851.421387,446.074005 853.276611,447.064178 856.591553,447.058197 C903.923706,446.972900 951.256165,447.001923 998.588501,446.990845 C999.994080,446.990540 1001.399658,446.853790 1003.437195,446.747772 C919.020691,330.001953 835.037842,213.855835 750.541809,97.000000 C753.860107,97.000000 755.857605,97.000000 757.855103,97.000000 C840.186768,97.000000 922.518433,96.958649 1004.849792,97.118874 C1009.082764,97.127106 1010.960876,95.603676 1012.539307,92.050888 C1022.583130,69.443642 1032.810669,46.918106 1042.911865,24.336205 C1046.371948,16.600983 1049.642700,8.781171 1053.000000,0.999998 C1053.666626,1.333332 1054.783691,1.548035 1054.909180,2.023940 C1055.196533,3.114901 1055.000000,4.333333 1055.000000,5.500000 C1055.000000,154.000000 1055.000000,302.500000 1055.000000,451.000000 C705.166687,451.000000 355.333344,451.001709 5.500006,450.956848 C3.565714,450.956604 0.191824,452.462250 1.000000,447.500000 z"/>
  <path fill="#1364FE" stroke="none" d="M1052.531372,0.999999 C1049.642700,8.781171 1046.371948,16.600983 1042.911865,24.336205 C1032.810669,46.918106 1022.583130,69.443642 1012.539307,92.050888 C1010.960876,95.603676 1009.082764,97.127106 1004.849792,97.118874 C922.518433,96.958649 840.186768,97.000000 757.855103,97.000000 C755.857605,97.000000 753.860107,97.000000 750.541809,97.000000 C835.037842,213.855835 919.020691,330.001953 1003.437195,446.747772 C1001.399658,446.853790 999.994080,446.990540 998.588501,446.990845 C951.256165,447.001923 903.923706,446.972900 856.591553,447.058197 C853.276611,447.064178 851.421387,446.074005 849.465393,443.169403 C831.720764,416.818237 813.742188,390.624298 795.768860,364.427704 C780.555359,342.253693 765.225647,320.159454 750.006287,297.989441 C730.919922,270.186432 711.935059,242.313736 692.826050,214.526306 C681.098999,197.473267 669.221680,180.523605 657.125854,163.115936 C654.466675,168.610489 651.685120,174.008133 649.211304,179.543320 C644.302368,190.527267 639.636292,201.619690 634.738770,212.608887 C623.412842,238.022385 612.043823,263.416809 600.624451,288.788422 C592.608215,306.599060 584.407959,324.326965 576.419739,342.150055 C565.440796,366.645935 554.590088,391.199310 543.673157,415.722992 C539.372375,425.384155 535.113281,435.065613 530.625732,444.639618 C530.105652,445.749084 528.242493,446.896576 526.997742,446.901337 C494.506256,447.024597 462.014221,446.998962 428.814758,446.998962 C431.982574,439.827454 434.925995,433.069580 437.945160,426.345734 C449.012299,401.698669 460.116028,377.067993 471.184509,352.421509 C482.849976,326.445709 494.490692,300.458740 506.142792,274.476929 C517.794678,248.495407 529.450195,222.515503 541.098755,196.532486 C552.480469,171.144638 563.846619,145.749802 575.235840,120.365334 C585.560242,97.353920 595.899292,74.349037 606.245667,51.347481 C613.726257,34.716866 621.229431,18.096384 628.361267,1.235688 C769.354248,1.000000 910.708496,1.000000 1052.531372,0.999999 z"/>
  <path fill="none" stroke="none" d="M172.531342,1.000001 C171.552032,4.919800 170.327209,8.939889 168.618240,12.742381 C160.344177,31.152315 151.914612,49.492287 143.592804,67.880875 C139.442200,77.052399 135.404404,86.274979 131.096603,95.967171 C240.209167,95.967171 348.758026,95.967171 457.703125,95.967171 C454.155884,103.961182 450.844543,111.544510 447.434875,119.083328 C439.386230,136.878983 431.170319,154.600494 423.313660,172.480133 C421.699402,176.153748 419.660278,177.088058 415.859924,177.083908 C319.863708,176.979172 223.867279,177.036377 127.871140,176.890381 C123.437561,176.883636 121.081978,178.043655 119.279800,182.171524 C108.540108,206.770615 97.566330,231.267685 86.627457,255.779510 C84.253044,261.100067 81.700424,266.341125 79.056343,271.989502 C178.869415,271.989502 278.024475,271.989502 377.817902,271.989502 C376.006165,276.473541 374.466980,280.669800 372.641022,284.737335 C363.109375,305.970642 353.452606,327.147888 343.976257,348.405701 C342.361359,352.028198 340.143341,353.109009 336.155090,353.103485 C240.325607,352.971069 144.495834,353.030579 48.666344,352.895233 C44.602074,352.889496 42.607056,354.121216 40.967804,357.756439 C28.787420,384.767761 16.421806,411.695618 4.071544,438.630066 C3.411048,440.070557 2.364664,441.334076 1.248957,442.339996 C1.000000,295.104980 1.000000,148.209930 1.000000,1.000000 C58.020508,1.000000 115.041595,1.000000 172.531342,1.000001 z"/>
</svg>
